<svg width="40" height="40" viewBox="0 0 40 40" fill="none" xmlns="http://www.w3.org/2000/svg">
<circle cx="20" cy="20" r="20" fill="#D4E0FF" fill-opacity="0.3"/>
<path d="M20 10C14.477 10 10 14.477 10 20C10 25.523 14.477 30 20 30C25.523 30 30 25.523 30 20C30 14.477 25.523 10 20 10ZM20 11.449C22.1785 11.449 24.167 12.264 25.677 13.605C24.5675 15.0685 22.882 16.043 21.193 16.7025C20.2369 14.9612 19.1653 13.2858 17.9855 11.6875C18.6453 11.5284 19.3218 11.4484 20.0005 11.449H20ZM16.362 12.259C17.477 13.927 18.557 15.4735 19.5435 17.224C17.0485 17.8705 14.229 18.2585 11.6245 18.265C12.1735 15.601 13.963 13.389 16.362 12.2595V12.259ZM26.6255 14.594C27.8611 16.104 28.5409 17.9924 28.551 19.9435C26.573 19.5535 24.606 19.4515 22.603 19.6535C22.378 19.092 22.105 18.5585 21.8435 17.9835C23.57 17.287 25.416 16.095 26.6255 14.5935V14.594ZM20.238 18.547C20.452 19.002 20.7 19.485 20.933 19.9785C18.148 21.2065 15.1855 22.8475 13.648 25.7245C12.172 24.0911 11.3854 21.9499 11.453 19.7495C14.4355 19.7355 17.363 19.3625 20.238 18.547V18.547ZM24.757 20.8785C26.0014 20.8788 27.2407 21.0384 28.4445 21.3535C28.2589 22.5116 27.837 23.6192 27.205 24.6072C26.573 25.5953 25.7445 26.4428 24.771 27.097C24.312 25.0095 23.8745 23.012 23.101 20.998C23.6492 20.9181 24.2025 20.878 24.7565 20.878L24.757 20.8785ZM28.489 21.0335C28.483 21.0825 28.4775 21.1305 28.4705 21.1785C28.4775 21.13 28.4835 21.082 28.489 21.0335ZM21.519 21.3885C22.307 23.425 22.9255 25.68 23.3405 27.8745C22.2841 28.3227 21.1481 28.553 20.0005 28.5515C18.0994 28.5542 16.2521 27.9206 14.753 26.7515C16.3015 24.2395 18.7 22.3385 21.5185 21.389L21.519 21.3885Z" fill="#2864FF"/>
</svg>
