<svg width="40" height="40" viewBox="0 0 40 40" fill="none" xmlns="http://www.w3.org/2000/svg">
<circle cx="20" cy="20" r="20" fill="#D4E0FF" fill-opacity="0.3"/>
<path d="M30.0181 12.4729C29.1903 13.0568 28.2737 13.5034 27.3037 13.7955C26.783 13.1969 26.0911 12.7726 25.3215 12.58C24.5519 12.3875 23.7417 12.4359 23.0005 12.7188C22.2593 13.0017 21.6228 13.5054 21.1772 14.1618C20.7317 14.8182 20.4984 15.5956 20.509 16.3889V17.2533C18.9899 17.2927 17.4845 16.9558 16.1271 16.2726C14.7697 15.5893 13.6023 14.581 12.7289 13.3374C12.7289 13.3374 9.27108 21.1175 17.0512 24.5753C15.2709 25.7838 13.15 26.3897 11 26.3042C18.7801 30.6265 28.2892 26.3042 28.2892 16.363C28.2884 16.1222 28.2652 15.882 28.22 15.6455C29.1023 14.7754 29.7249 13.6768 30.0181 12.4729V12.4729Z" stroke="#2864FF" stroke-width="1.7" stroke-linecap="round" stroke-linejoin="round"/>
</svg>
